<svg xmlns="http://www.w3.org/2000/svg" version="1.1" xmlns:xlink="http://www.w3.org/1999/xlink" xmlns:svgjs="http://svgjs.dev/svgjs" width="128" height="128" viewBox="0 0 128 128"><g transform="matrix(0.8046875,0,0,0.8046875,12.221578124999994,12.221578124999994)"><svg viewBox="0 0 96 96" data-background-color="#fee869" preserveAspectRatio="xMidYMid meet" height="128" width="128" xmlns="http://www.w3.org/2000/svg" xmlns:xlink="http://www.w3.org/1999/xlink"><g id="tight-bounds" transform="matrix(1,0,0,1,0.25950000000000273,0.25950000000000273)"><svg viewBox="0 0 95.481 95.481" height="95.481" width="95.481"><g><svg viewBox="0 0 95.481 95.481" height="95.481" width="95.481"><g><svg viewBox="0 0 95.481 95.481" height="95.481" width="95.481"><g id="textblocktransform"><svg viewBox="0 0 95.481 95.481" height="95.481" width="95.481" id="textblock"><g><svg viewBox="0 0 95.481 95.481" height="95.481" width="95.481"><g><svg viewBox="0 0 95.481 95.481" height="95.481" width="95.481"><g><svg xmlns="http://www.w3.org/2000/svg" xmlns:xlink="http://www.w3.org/1999/xlink" version="1.1" x="0" y="0" viewBox="0 0 32 32" style="enable-background:new 0 0 32 32;" xml:space="preserve" height="95.481" width="95.481" class="icon-icon-0" data-fill-palette-color="accent" id="icon-0"><g class="" display="none" fill="#222222" data-fill-palette-color="accent"><g class="" display="inline" fill="#222222" data-fill-palette-color="accent"><line class="" x1="9.4" y1="31.8" x2="13.5" y2="23" fill="none" stroke="#222222" stroke-miterlimit="10"></line><line class="" x1="32" y1="22.9" x2="0" y2="22.9" fill="none" stroke="#222222" stroke-miterlimit="10"></line><polyline class="" points="29.3,22.9 29.3,0.5 2.7,0.5 2.7,22.9   " fill="none" stroke="#222222" stroke-miterlimit="10"></polyline><line class="" x1="22.6" y1="31.8" x2="18.5" y2="23" fill="none" stroke="#222222" stroke-miterlimit="10"></line><line class="" x1="11.8" y1="26.5" x2="20" y2="26.5" fill="none" stroke="#222222" stroke-miterlimit="10"></line></g><g class="" display="inline" fill="#222222" data-fill-palette-color="accent"><g fill="#222222" data-fill-palette-color="accent"><g fill="#222222" data-fill-palette-color="accent"><line class="" x1="11.2" y1="5.6" x2="25.5" y2="5.6" fill="none" stroke="#222222" stroke-miterlimit="10"></line></g><g fill="#222222" data-fill-palette-color="accent"><line class="" x1="11.2" y1="9.6" x2="25.5" y2="9.6" fill="none" stroke="#222222" stroke-miterlimit="10"></line><circle class="" cx="8.1" cy="9.6" r="1.1" fill="none" stroke="#222222" stroke-miterlimit="10"></circle></g><g fill="#222222" data-fill-palette-color="accent"><line class="" x1="11.2" y1="13.8" x2="25.5" y2="13.8" fill="none" stroke="#222222" stroke-miterlimit="10"></line><circle class="" cx="8.1" cy="13.8" r="1.1" fill="none" stroke="#222222" stroke-miterlimit="10"></circle></g><g fill="#222222" data-fill-palette-color="accent"><line class="" x1="11.2" y1="17.8" x2="25.5" y2="17.8" fill="none" stroke="#222222" stroke-miterlimit="10"></line><circle class="" cx="8.1" cy="17.8" r="1.0" fill="none" stroke="#222222" stroke-miterlimit="10"></circle></g></g><polyline class="" points="6.5,4.9 7.7,6.1 9.6,3.8   " fill="none" stroke="#222222" stroke-miterlimit="10"></polyline></g></g><g fill="#222222" data-fill-palette-color="accent"><g fill="#222222" data-fill-palette-color="accent"><path d="M29.8 0H2.2V22.5H0V23.5H12.7L8.9 31.6 9.8 32 12.1 27H19.8L22.2 32 23.1 31.6 19.3 23.5H32V22.5H29.8zM3.2 1H28.9V22.5H3.2zM19.4 26H12.6L13.8 23.5H18.2z" fill="#222222" data-fill-palette-color="accent"></path><rect x="11.2" y="5.1" width="14.3" height="1" fill="#222222" data-fill-palette-color="accent"></rect><rect x="11.2" y="9.1" width="14.3" height="1" fill="#222222" data-fill-palette-color="accent"></rect><path d="M8.1 8.1C7.3 8.1 6.5 8.8 6.5 9.7S7.2 11.3 8.1 11.3 9.7 10.6 9.7 9.7 8.9 8.1 8.1 8.1M8.1 10.2C7.8 10.2 7.5 10 7.5 9.6S7.8 9.1 8.1 9.1 8.7 9.3 8.7 9.7 8.4 10.2 8.1 10.2" fill="#222222" data-fill-palette-color="accent"></path><rect x="11.2" y="13.2" width="14.3" height="1" fill="#222222" data-fill-palette-color="accent"></rect><path d="M8.1 12.2C7.3 12.2 6.5 12.9 6.5 13.8S7.2 15.4 8.1 15.4 9.7 14.7 9.7 13.8 8.9 12.2 8.1 12.2M8.1 14.3C7.8 14.3 7.5 14.1 7.5 13.7S7.7 13.1 8.1 13.1 8.7 13.3 8.7 13.7 8.4 14.3 8.1 14.3" fill="#222222" data-fill-palette-color="accent"></path><rect x="11.2" y="17.3" width="14.3" height="1" fill="#222222" data-fill-palette-color="accent"></rect><path d="M8.1 16.3C7.3 16.3 6.5 17 6.5 17.8 6.5 18.7 7.2 19.3 8.1 19.3S9.7 18.6 9.7 17.8C9.6 17 8.9 16.3 8.1 16.3M8.1 18.4C7.8 18.4 7.5 18.2 7.5 17.9S7.7 17.4 8.1 17.4 8.7 17.6 8.7 17.9 8.4 18.4 8.1 18.4" fill="#222222" data-fill-palette-color="accent"></path><polygon points="7.7,5.4 6.9,4.6 6.2,5.3 7.8,6.9 10,4.1 9.3,3.4   " fill="#222222" data-fill-palette-color="accent"></polygon></g></g></svg></g></svg></g></svg></g></svg></g></svg></g></svg></g><defs></defs></svg><rect width="95.481" height="95.481" fill="none" stroke="none" visibility="hidden"></rect></g></svg></g></svg>